<svg id="Layer_1" data-name="Layer 1" xmlns="http://www.w3.org/2000/svg" xmlns:xlink="http://www.w3.org/1999/xlink" viewBox="0 0 185.6 61.41"><defs><style>.cls-1{fill:none;}.cls-2{clip-path:url(#clip-path);}.cls-3{fill:#fff;}.cls-4{clip-path:url(#clip-path-2);}</style><clipPath id="clip-path"><rect class="cls-1" width="185.6" height="61.41"/></clipPath><clipPath id="clip-path-2"><rect class="cls-1" width="185.6" height="61.41"/></clipPath></defs><g id="Horizontal_Logo" data-name="Horizontal Logo"><g class="cls-2"><path class="cls-3" d="M35.19,40.7V30l3.08-8.68.58-.69.58.69L42.5,30V40.7L38.85,51Zm2.72-21.17.48.57-.48.57Zm1.4.57.48-.57v1.14ZM18.8,29.36l-5-5.85L11.54,17V15.9l1,0,5.62,2.86,4.95,5.85,3,8.39Zm35.82-4.71,5-5.85,5.62-2.86,1,0V17l-2.31,6.51-5,5.85L51.64,33ZM10.39,15.86l.91,0v1Zm56,0,.91,0-.91,1.07Zm-39.22,17-3.08-8.69V16l.36-1,.88.45,5,5.85L33.36,30V40.18ZM44.33,30l3.08-8.68,5-5.85.87-.45.36,1v8.14l-3.08,8.69-6.19,7.31ZM11.54,15.63v-1l.91,1.08Zm54.62-1v1l-.91,0ZM23.3,14.44l.79.41-.33.92Zm30.3.41.8-.41-.47,1.33Zm-22.3,6v-7l3.17,1.61,2.78,3.28v2.1l-3,8.39Zm9.14,0v-2.1l2.78-3.28,3.17-1.61v7l-3,8.39ZM24.6,14.61l.33-.92L25.4,15Zm28.17-.92.32.92L52.3,15ZM18.6,18.27,16.55,12.5l3.16.12,3.06,1.56L23.43,16v8ZM54.26,16l.66-1.86L58,12.62l3.15-.12-2,5.77L54.26,24ZM25.8,15l-.66-1.86.22-.61,3.49.14,1.79.91v7.14Zm21.25-1.42,1.79-.91,3.5-.14.21.61L51.89,15l-4.84,5.72ZM24.92,12.46h0v0Zm27.84,0h0v0Zm-14.85,6V12.72l.94-2.65.94,2.65v5.73l-.94,1.11ZM25.45,12.21l.95-2.67h0l2.39,2.82ZM51.28,9.53h0l1,2.67-3.34.14Zm-20,3.84v-.65L32.51,9.3l2,5.72ZM45.18,9.3l1.21,3.42v.65L43.15,15ZM16.45,12.22l-.16-.45V8.37l3.36,4Zm45-3.85v3.4l-.16.45-3.2.13ZM47.05,12.72,49.1,6.94l2,2.39-2.44,2.88L47.05,13Zm-18-.51L26.57,9.33l2-2.39,2.05,5.78V13Zm-5.93,1.63L21.5,9.37V6.68l1.63,1.93,1.26,3.56-.83,0v.27l.94,0,.22.64-.47,1.34ZM54.56,8.61,56.2,6.68V9.37l-1.59,4.47-1.16.59L53,13.09l.23-.64.93,0v-.27l-.83,0Zm-25.66-2,.83-1,2.54,3,0,.08L31,12.45Zm16.49,2.1,0-.08,2.55-3,.83,1-2.08,5.86ZM35,15,32.73,8.69l.88-2.48.66-.79.67.79,2.31,6.51v5Zm5.49-2.23,2.31-6.51.67-.79.67.79L45,8.69,42.75,15l-2.31,2.72Zm-7-8.24.63.75L33.48,6Zm1,.75.63-.75V6Zm8.18-.75.63.75L42.62,6Zm1,.75.64-.75V6ZM28.7,6V4.4l.86,1-.76.9Zm19.43-.63.86-1V6l-.09.27ZM35.31,6V4.2l.23-.27,1.94,2.28,1.15,3.26-1.05,3Zm3.75,3.43,1.15-3.26,1.94-2.28.23.27V6l-2.26,6.41ZM26.27,9V3.77l2.07,2.44.16.46L26.41,9.14ZM49.2,6.67l.16-.46,2.06-2.44V9l-.14.17Zm-13.89-3,.07.08-.07.08Zm7,.08.06-.08v.16ZM44.45,6V4.2l.6-.7V7.74ZM32.64,3.49l.6.71V6l-.6,1.7ZM49,0V4.14l-.06-.06L48,5.22,47.78,5l-.17.19.19.22-2.51,3V3.22l1.14-1.35-.17-.19-1,1.14V2.4h-.24v.7l-.6.71V0h-.23V4.09l-.8.94-.8-.94V3.37l1.27-1.5-.17-.19L42.62,3V0h-.24V3.26l-.23.28L40.58,1.68l-.17.19L42,3.73,40.08,6V0h-.23V6l-1,2.83L37.85,6V0h-.24V6l-1.9-2.25,1.58-1.86-.17-.19L35.54,3.54l-.23-.28V0h-.24V3L34,1.68l-.17.19,1.27,1.5v.72l-.8,1-.79-1V0h-.24V3.81l-.6-.71V2.4H32.4v.42l-1-1.14-.17.19L32.4,3.21V8.38l-2.51-3,.19-.22L29.91,5l-.18.22-1-1.14-.06.06V0h-.23V6l-2.2-2.6V3.32h-.05L24.83,1.68l-.18.19L26,3.49v5.2l-.7-.83-.17.19.87,1v.29L25,12.2h-.21L23.5,8.45v-6h-.24v6L21.5,6.3v-3h-.24V6L19.62,4.08l-.17.19L21.26,6.4V9.3L17.62,5l-.17.19,3.68,4.35,1.43,4-2.69-1.37L16.29,8V5.72h-.24V8l0,0,0,0V11.7L12.41,7.4l-.17.19,3.68,4.34.1.27-1.6-.06v.27l1.71.07,2.07,5.86-5.53-2.81L11.54,14.2V11H11.3v3L9,11.18l-.17.19,2.49,2.94v1.31l-1.15,0L7.66,12.63l-.17.19,2.32,2.74-2.6-.1v.27l2.85.11,1.12,1.33,2.27,6.4-5.53-2.8L4.23,16.42l-.17.18L7.7,20.9l-5.24-.2V21l5.3.21L13.37,24l4.84,5.72-7-.28L5.62,26.62,1.94,22.27l-.17.19,3.64,4.3L.17,26.55v.27L5.46,27,11,29.84,5.3,32.2,0,32v.27l5.24.21-3.9,4,.16.2,3.94-4.05,5.78-2.4,7.13.29,7.5,3.81L32.36,42,37,55H17v1.28h43.4V55H40.72l4.61-13,6.51-7.68,7.5-3.81,7.13-.29,5.78,2.4,3.94,4.05.16-.2-3.89-4,5.23-.21V32l-5.3.21L66.7,29.84,72.23,27l5.3-.21v-.27l-5.24.21,3.64-4.3-.17-.19-3.68,4.35-5.62,2.85-7,.28L64.33,24,70,21.18,75.24,21V20.7L70,20.9l3.64-4.3-.17-.18-3.69,4.35-5.52,2.8,2.26-6.4,1.12-1.33,2.85-.11v-.27l-2.6.1,2.32-2.74L70,12.63l-2.49,2.95-1.15,0V14.31l2.49-2.94-.17-.19-2.32,2.74V11h-.23V14.2L65,15.53,59.5,18.34l2.08-5.86,1.7-.07v-.27l-1.6.06.09-.26,3.68-4.35-.17-.19-3.64,4.3V8.09l0,0,0,0V5.72H61.4V8l-3.57,4.23-2.7,1.37,1.43-4,3.68-4.35L60.07,5,56.43,9.3V6.4l1.82-2.13-.18-.19L56.43,6V3.32H56.2v3L54.43,8.38v-6H54.2v6l-1.33,3.75h-.21l-1-2.83V9.08l.87-1-.17-.19-.7.83V3.49L53,1.87l-.17-.19L51.48,3.32h-.06v.06L49.23,6V0Z"/><path class="cls-3" d="M88.92,38.91a16,16,0,0,1-7-1.42l-.17-3.41L82.1,34c1,2.22,3.64,3.61,7.14,3.61,3.67,0,6.12-1.82,6.12-4.51,0-2.14-1.07-3-5.52-4.05-5.29-1.24-7.11-2.31-7.11-5.34s3-5.35,7.34-5.35a17.74,17.74,0,0,1,6.19,1L96,21.8l-.32.06c-1.13-1.3-2.8-2.2-6-2.2-3,0-4.68,1.56-4.68,3.33s.75,2.57,5.43,3.67c5,1.15,7.2,2.48,7.2,5.66C97.56,36.4,93.74,38.91,88.92,38.91Z"/><path class="cls-3" d="M105.82,38.77c-.72-.06-1.56-.06-2.28-.06s-1.65,0-2.4.06l-.06-.29a1.71,1.71,0,0,0,1.24-1.8v-16c0-1.12-.34-1.61-1.09-1.9l.11-.29c.72.06,1.42.06,2.14.06s1.62,0,2.28-.06l.12.26a1.72,1.72,0,0,0-1.19,1.73V36.66a1.79,1.79,0,0,0,1.22,1.82Z"/><path class="cls-3" d="M117.49,38.79c-1.73,0-3.12,0-4.21,0s-1.62,0-3,.08l-.12-.26a2,2,0,0,0,.93-1.93V20.5a1.74,1.74,0,0,0-1-1.79l.11-.29c1.21.06,1.88.09,2.57.09,1.85,0,3.15-.06,4.6-.06,6.47,0,11.53,3.84,11.53,10C128.94,35,124.08,38.79,117.49,38.79Zm-.43-19c-1.39,0-2.25,0-3.61.06V37.38c1.33.08,2.89.11,4.25.11,5.58,0,8.67-3.32,8.67-9C126.37,23.16,122.73,19.75,117.06,19.75Z"/><path class="cls-3" d="M149,38.88c-4.59,0-8.47-3.67-11.53-10.35h-3.15V36.4a1.84,1.84,0,0,0,1.24,2.05l-.14.32a18.61,18.61,0,0,0-2.2-.06c-.81,0-1.3,0-2.14.06l-.11-.26a1.82,1.82,0,0,0,1-1.88V20.56a2,2,0,0,0-1-1.82l.09-.26c1.44.06,2.54.06,4,.06l4.76,0c3.53,0,6.45,1.47,6.45,4.65s-2.54,4.71-5.84,5.2c2.23,5.64,5.29,9.51,8.73,10.09ZM139.2,19.81c-1.85,0-3.18,0-4.86.05v7.35l4.13,0c2.84,0,5.21-1.21,5.21-3.87C143.68,20.9,142.23,19.81,139.2,19.81Z"/><path class="cls-3" d="M170.49,38.77a24.14,24.14,0,0,0-2.63-.06c-1,0-2.11,0-3,.06l-.09-.29a1.5,1.5,0,0,0,.92-1.22,4.71,4.71,0,0,0-.52-1.93l-2.6-6H155.9L153.12,35a4.67,4.67,0,0,0-.6,2.08c0,.78.37,1,1.12,1.45l-.08.29c-1,0-1.8-.06-2.78-.06s-1.36,0-2.2.06l-.05-.35A4.29,4.29,0,0,0,151,35.9l7.69-15.28a6.16,6.16,0,0,0,.87-2.66h.49l8.06,18.12a3.93,3.93,0,0,0,2.43,2.4Zm-11-16.68L156.53,28H162Z"/><g class="cls-4"><path class="cls-3" d="M184.21,20.7h-.28c-.18-.43-.52-.84-2.29-.84h-4.13V36.34a1.87,1.87,0,0,0,1.33,2.11l-.06.32c-.69-.06-1.59-.06-2.31-.06s-1.68,0-2.34.06l-.06-.32a1.81,1.81,0,0,0,1.07-1.94V19.86h-3.32c-2.37,0-3.15.35-3.93.9l-.23-.17.92-2.11c3,0,4.77.06,7.8.06,3.41,0,5.38,0,8.76-.06Z"/><path class="cls-3" d="M88,56.31l-3.16-6.65v6.65H83.43V42.71h1.71a4.83,4.83,0,0,1,2.35.39c1.22.65,1.46,2,1.46,3.26,0,1.88-.63,3.26-2.69,3.43l3.16,6.52Zm-2.33-7.64c1.63,0,1.9-1,1.9-2.39s-.33-2.41-2.06-2.41h-.67v4.8Z"/><path class="cls-3" d="M97.13,56.31V42.71h4.24v1.16h-3v4.8h2.9v1.16h-2.9v5.32h3v1.16Z"/><path class="cls-3" d="M113.93,44.85a2.53,2.53,0,0,0-2-1.1A2,2,0,0,0,110,46c0,3.14,4.65,2.94,4.65,6.71a3.46,3.46,0,0,1-5.54,3.12V54.17a3.08,3.08,0,0,0,2.2,1.1,2.21,2.21,0,0,0,2.06-2.43c0-3.11-4.65-2.89-4.65-6.7,0-1.86,1.14-3.61,3.14-3.61a3.45,3.45,0,0,1,2.12.73Z"/><path class="cls-3" d="M122.15,56.31V42.71h4.24v1.16h-3v4.8h2.9v1.16h-2.9v5.32h3v1.16Z"/><path class="cls-3" d="M138.52,56.31,138,53.52h-2.87l-.51,2.79h-1.35L136,42.71h1.18l2.72,13.6Zm-1.61-8.68a23.06,23.06,0,0,1-.39-3.21,74.15,74.15,0,0,1-1.18,8h2.47Z"/><path class="cls-3" d="M151.75,56.31l-3.16-6.65v6.65h-1.38V42.71h1.71a4.79,4.79,0,0,1,2.34.39c1.23.65,1.47,2,1.47,3.26,0,1.88-.63,3.26-2.69,3.43l3.16,6.52Zm-2.32-7.64c1.63,0,1.89-1,1.89-2.39s-.32-2.41-2.06-2.41h-.67v4.8Z"/><path class="cls-3" d="M165.74,55.92a3.24,3.24,0,0,1-1.78.57,3.12,3.12,0,0,1-2.44-1.32c-1-1.43-1.16-3.61-1.16-5.3,0-2.51.28-7.34,3.75-7.34a3,3,0,0,1,1.63.43v1.38a3,3,0,0,0-1.57-.59c-2.45,0-2.53,4-2.53,5.71,0,1.33.14,3.89.9,5a1.79,1.79,0,0,0,1.53.84,3.15,3.15,0,0,0,1.67-.61Z"/><path class="cls-3" d="M177.73,56.31v-7h-3.1v7h-1.26V42.71h1.26v5.42h3.1V42.71H179v13.6Z"/></g></g></g></svg>